<svg width="365" height="265" viewBox="0 0 365 265" fill="none" xmlns="http://www.w3.org/2000/svg">
<ellipse cx="186.709" cy="136.702" rx="173.709" ry="127.702" fill="black"/>
<path d="M148.813 84.7391C149.335 84.8749 149.904 85.0106 150.511 85.1464C149.961 84.9375 149.392 84.8017 148.813 84.7391Z" fill="black"/>
<path d="M306.787 180.483C302.802 176.409 297.411 178.052 297.088 177.629C296.003 176.223 298.664 162.858 298.657 159.64C298.618 144.819 292.45 129.312 281.535 120.495C272.544 113.22 262.206 112.653 254.023 104.607C244.97 95.7057 237.07 75.6336 251.161 67.5285C260.522 62.1421 259.145 68.9683 262.737 73.728C268.975 81.994 282.435 91.8099 289.027 100.067C292.788 104.785 296.272 116.277 303.318 116.074C310.479 115.871 299.864 97.7637 299.449 95.6888C295.918 78.0473 302.787 66.2751 288.735 51.708C278.782 41.3925 263.46 41.9684 251.108 46.1776C219.126 57.0606 211.012 98.6022 239.409 121.198C246.485 126.83 265.445 136.112 265.237 147.012C265.168 150.324 263.983 152.043 260.807 150.883C258.107 149.9 246.869 138.992 242.585 136.46C236.217 132.699 228.41 131.022 222.126 127.033C212.542 120.936 203.512 110.086 193.582 104.2C187.029 100.321 181.099 99.3221 174.531 96.7813C173.923 96.5526 173.646 94.8164 172.238 94.2236C169.193 92.9532 166.462 94.2151 164.355 93.7663C162.632 93.3936 160.947 90.9799 158.786 90.2685C153.717 88.6 143.411 89.9805 153.802 92.6314C154.271 92.6822 154.733 92.7923 155.179 92.9617C154.686 92.8516 154.225 92.7415 153.802 92.6314C149.487 92.0555 144.234 95.5956 140.688 96.0275C138.165 96.3409 130.55 91.1408 127.689 90.9968C125.105 90.8698 124.097 92.2672 122.643 92.2841C119.667 92.3265 118.798 92.2079 115.79 92.4789C115.567 92.5043 115.49 91.361 115.298 91.4118C114.39 91.6489 99.5457 100.372 98.8535 101.058C97.8997 101.998 98.0843 103.895 97.4613 104.497C95.5538 106.368 91.7465 107.105 90.4697 111.255C89.9544 112.949 90.1005 117.878 89.6698 118.742C89.5083 119.064 84.6626 121.757 84.378 123.307C83.9242 126.246 82.3167 128.914 81.4783 131.277C81.1322 132.25 82.5705 131.692 82.3398 132.708C81.9321 134.461 79.9477 134.757 79.8169 135.028C77.7171 139.365 86.2701 148.351 84.6934 149.511C83.332 150.51 73.6099 153.305 71.6024 153.881C71.2947 153.966 70.2256 156.591 69.9333 155.067C69.7333 154.033 71.9485 151.967 70.1794 151.781C64.6031 161.029 50.6968 159.369 41.8361 158.878C41.813 167.203 49.9507 169.083 54.2887 173.301C58.696 177.578 61.6803 182.956 67.272 188.275C67.272 188.275 76.5403 195.067 78.3863 197.684C80.2323 200.292 112.406 200.004 120.621 202.909C128.835 205.814 165.147 209.583 166.993 208.423C168.839 207.263 183.607 206.975 189.414 208.804C195.213 210.633 258.845 208.804 258.845 208.804C259.445 208.533 261.868 209.109 263.552 208.406C264.814 207.881 265.983 205.984 267.467 205.628L297.549 197.396C298.741 195.609 306.763 194.364 306.763 194.364C306.763 194.364 310.771 184.556 306.787 180.483ZM295.326 103.887C297.464 106.47 300.403 104.598 301.226 105.267C302.049 105.945 300.472 106.216 300.726 107.851C300.979 109.485 305.51 110.764 303.364 111.077C301.456 111.357 296.903 107.876 294.565 104.471C294.295 104.082 295.026 103.531 295.326 103.887ZM286.019 75.2271C285.889 77.3529 289.75 80.063 289.258 82.0533C289.165 82.4259 285.704 82.9764 285.573 82.824C285.281 82.5022 285.535 75.9639 286.019 75.2271ZM127.989 97.0269C127.435 97.696 123.713 101.88 123.389 99.8048C123.19 98.5006 126.881 96.7474 127.989 97.0269ZM122.082 98.9156C121.859 99.4152 122.59 100.448 122.467 100.567C122.043 100.974 119.99 100.279 119.798 99.3136C119.713 98.8986 125.005 92.3688 122.082 98.9156ZM124.097 105.666C127.251 102.693 132.781 99.8387 136.742 98.5344L135.365 97.5351C136.004 97.6706 137.242 96.866 137.65 97.0269C140.465 98.1364 129.089 104.497 128.92 105.395C128.643 106.868 131.689 106.216 130.75 107.918C129.112 110.908 128.404 107.139 128.227 107.165C126.458 107.461 128.574 110.12 128.451 110.197C128.104 110.442 121.459 109.688 120.628 111.992C120.074 113.525 132.573 108.587 129.589 115.27C127.274 111.594 118.759 115.202 118.321 114.761C117.613 114.067 123.013 106.682 124.097 105.666ZM116.936 98.0432C116.667 100.059 115.021 101.245 113.252 101.583L116.936 98.0432ZM118.659 119.919C119.836 119.538 120.836 120.461 121.544 120.343C121.782 120.309 120.444 117.311 124.766 120.343C118.828 125.907 120.874 121.596 120.621 121.359C119.521 120.317 109.852 129.151 108.645 130.98C108.783 124.942 113.96 121.418 118.659 119.911V119.919ZM116.467 125.924C117.244 126.576 116.498 135.503 112.791 133.521L114.629 131.505C107.599 133.868 115.552 125.153 116.467 125.924ZM109.752 135.579C111.998 136.544 107.56 139.026 108.645 140.11C108.899 140.364 110.345 139.542 110.66 139.737C111.814 140.449 115.036 143.04 116.706 142.642C116.959 142.574 118.613 137.916 120.621 141.626C118.859 141.965 118.152 143.43 116.259 143.675C115.667 143.752 108.568 142.583 108.199 142.397C105.484 141.016 107.468 134.605 109.752 135.579ZM110.029 147.216C110.368 146.826 116.975 153.322 107.26 150.756C107.514 148.444 110.698 150.375 110.937 148.986C110.952 148.893 109.545 147.766 110.029 147.216ZM108.637 145.7C108.983 146.292 106.707 149.485 105.884 149.748C104.722 146.885 107.091 143.032 108.637 145.7ZM100.807 137.578L105.876 132.513C105.93 135.088 103.007 137.984 100.807 137.578ZM101.73 110.205L97.1383 109.951C98.6766 108.689 101.238 106.843 101.73 110.205ZM98.0305 119.352C98.3997 119.547 96.346 127.804 94.8231 127.44C93.754 125.39 94.7847 117.641 98.0305 119.352ZM91.6004 129.981C93.3617 128.719 93.2079 135.096 92.508 136.062C90.562 136.146 91.2235 130.252 91.6004 129.981ZM88.3392 142.185C88.5776 142.236 91.3619 145.513 91.5927 146.199C89.9775 146.902 84.5395 141.296 88.3392 142.185ZM109.806 171.548C108.699 171.793 109.899 173.665 109.337 173.572C109.137 173.538 108.368 172.378 107.722 172.259C100.446 170.946 92.5234 169.109 86.1778 164.976L73.1714 162.926C78.5171 163.07 72.2408 161.503 73.1637 159.894C73.6176 159.115 78.8632 157.328 79.1785 157.108C79.7939 156.676 80.263 154.491 83.1166 153.347C87.0547 151.789 92.531 152.136 96.6614 150.256C92.5695 160.318 98.8612 154.575 100.33 155.846C100.653 156.125 103.199 162.291 104.499 163.434C104.853 163.739 109.399 159.759 112.875 162.079C117.221 164.993 111.914 163.866 113.014 165.475C113.283 165.873 122.582 169.888 119.921 170.548C119.167 170.735 117.544 169.134 116.936 171.031L122.005 174.08C120.013 174.91 110.414 171.412 109.806 171.548ZM122.92 130.98C121.897 132.665 113.114 131.734 123.613 126.932C127.558 125.128 121.967 130.43 120.159 129.981C120.474 131.996 124.266 128.778 122.92 130.98ZM123.389 151.781C122.743 148.986 124.128 144.633 126.612 143.159L123.389 151.781ZM138.126 119.335C132.673 121.503 130.473 123.951 126.612 128.456C128.151 123.553 132.804 118.573 138.126 119.335ZM128.004 156.591L133.519 156.345C132.404 157.59 129.15 157.938 128.004 156.591ZM131.912 144.675C129.943 144.641 131.466 140.042 133.519 140.627C133.681 141.329 132.112 144.683 131.912 144.675ZM137.973 126.991C137.303 127.304 137.157 128.465 136.711 128.676C126.497 133.495 139.142 124.84 139.965 125.416C143.364 127.762 138.173 126.889 137.973 126.991ZM140.434 103.353C139.996 101.05 147.21 99.0257 147.802 101.084C147.933 101.541 140.988 106.233 140.434 103.353Z" fill="white"/>
</svg>
