<svg width="373" height="245" viewBox="0 0 373 245" fill="none" xmlns="http://www.w3.org/2000/svg">
<path d="M156.89 71.56C157.44 71.69 158.04 71.82 158.68 71.95C158.1 71.75 157.5 71.62 156.89 71.56Z" fill="black"/>
<path d="M355.79 175.29C350.61 170.48 343.6 172.42 343.18 171.92C341.77 170.26 345.23 154.48 345.22 150.68C345.17 133.18 337.15 114.87 322.96 104.46C311.27 95.87 297.83 95.2 287.19 85.7C275.42 75.19 265.15 51.49 283.47 41.92C295.64 35.56 293.85 43.62 298.52 49.24C306.63 59 324.13 70.59 332.7 80.34C337.59 85.91 342.12 99.48 351.28 99.24C360.59 99 346.79 77.62 346.25 75.17C341.66 54.34 350.59 40.44 332.32 23.24C319.38 11.06 299.46 11.74 283.4 16.71C241.82 29.56 231.27 78.61 268.19 105.29C277.39 111.94 302.04 122.9 301.77 135.77C301.68 139.68 300.14 141.71 296.01 140.34C292.5 139.18 277.89 126.3 272.32 123.31C264.04 118.87 253.89 116.89 245.72 112.18C233.26 104.98 221.52 92.17 208.61 85.22C200.09 80.64 192.38 79.46 183.84 76.46C183.05 76.19 182.69 74.14 180.86 73.44C176.9 71.94 173.35 73.43 170.61 72.9C168.37 72.46 166.18 69.61 163.37 68.77C156.78 66.8 143.38 68.43 156.89 71.56C157.5 71.62 158.1 71.75 158.68 71.95C158.04 71.82 157.44 71.69 156.89 71.56C151.28 70.88 144.45 75.06 139.84 75.57C136.56 75.94 126.66 69.8 122.94 69.63C119.58 69.48 118.27 71.13 116.38 71.15C112.51 71.2 111.38 71.06 107.47 71.38C107.18 71.41 107.08 70.06 106.83 70.12C105.65 70.4 86.35 80.7 85.45 81.51C84.21 82.62 84.45 84.86 83.64 85.57C81.16 87.78 76.21 88.65 74.55 93.55C73.88 95.55 74.07 101.37 73.51 102.39C73.3 102.77 67 105.95 66.63 107.78C66.04 111.25 63.95 114.4 62.86 117.19C62.41 118.34 64.28 117.68 63.98 118.88C63.45 120.95 60.87 121.3 60.7 121.62C57.97 126.74 69.09 137.35 67.04 138.72C65.27 139.9 52.63 143.2 50.02 143.88C49.62 143.98 48.23 147.08 47.85 145.28C47.59 144.06 50.47 141.62 48.17 141.4C40.92 152.32 22.84 150.36 11.32 149.78C11.29 159.61 21.87 161.83 27.51 166.81C33.24 171.86 37.12 178.21 44.39 184.49C44.39 184.49 56.44 192.51 58.84 195.6C61.24 198.68 103.07 198.34 113.75 201.77C124.43 205.2 171.64 209.65 174.04 208.28C176.44 206.91 195.64 206.57 203.19 208.73C210.73 210.89 293.46 208.73 293.46 208.73C294.24 208.41 297.39 209.09 299.58 208.26C301.22 207.64 302.74 205.4 304.67 204.98L343.78 195.26C345.33 193.15 355.76 191.68 355.76 191.68C355.76 191.68 360.97 180.1 355.79 175.29ZM340.89 84.85C343.67 87.9 347.49 85.69 348.56 86.48C349.63 87.28 347.58 87.6 347.91 89.53C348.24 91.46 354.13 92.97 351.34 93.34C348.86 93.67 342.94 89.56 339.9 85.54C339.55 85.08 340.5 84.43 340.89 84.85ZM328.79 51.01C328.62 53.52 333.64 56.72 333 59.07C332.88 59.51 328.38 60.16 328.21 59.98C327.83 59.6 328.16 51.88 328.79 51.01ZM123.33 76.75C122.61 77.54 117.77 82.48 117.35 80.03C117.09 78.49 121.89 76.42 123.33 76.75ZM115.65 78.98C115.36 79.57 116.31 80.79 116.15 80.93C115.6 81.41 112.93 80.59 112.68 79.45C112.57 78.96 119.45 71.25 115.65 78.98ZM118.27 86.95C122.37 83.44 129.56 80.07 134.71 78.53L132.92 77.35C133.75 77.51 135.36 76.56 135.89 76.75C139.55 78.06 124.76 85.57 124.54 86.63C124.18 88.37 128.14 87.6 126.92 89.61C124.79 93.14 123.87 88.69 123.64 88.72C121.34 89.07 124.09 92.21 123.93 92.3C123.48 92.59 114.84 91.7 113.76 94.42C113.04 96.23 129.29 90.4 125.41 98.29C122.4 93.95 111.33 98.21 110.76 97.69C109.84 96.87 116.86 88.15 118.27 86.95ZM108.96 77.95C108.61 80.33 106.47 81.73 104.17 82.13L108.96 77.95ZM111.2 103.78C112.73 103.33 114.03 104.42 114.95 104.28C115.26 104.24 113.52 100.7 119.14 104.28C111.42 110.85 114.08 105.76 113.75 105.48C112.32 104.25 99.75 114.68 98.18 116.84C98.36 109.71 105.09 105.55 111.2 103.77V103.78ZM108.35 110.87C109.36 111.64 108.39 122.18 103.57 119.84L105.96 117.46C96.82 120.25 107.16 109.96 108.35 110.87ZM99.62 122.27C102.54 123.41 96.77 126.34 98.18 127.62C98.51 127.92 100.39 126.95 100.8 127.18C102.3 128.02 106.49 131.08 108.66 130.61C108.99 130.53 111.14 125.03 113.75 129.41C111.46 129.81 110.54 131.54 108.08 131.83C107.31 131.92 98.08 130.54 97.6 130.32C94.07 128.69 96.65 121.12 99.62 122.27ZM99.98 136.01C100.42 135.55 109.01 143.22 96.38 140.19C96.71 137.46 100.85 139.74 101.16 138.1C101.18 137.99 99.35 136.66 99.98 136.01ZM98.17 134.22C98.62 134.92 95.66 138.69 94.59 139C93.08 135.62 96.16 131.07 98.17 134.22ZM87.99 124.63L94.58 118.65C94.65 121.69 90.85 125.11 87.99 124.63ZM89.19 92.31L83.22 92.01C85.22 90.52 88.55 88.34 89.19 92.31ZM84.38 103.11C84.86 103.34 82.19 113.09 80.21 112.66C78.82 110.24 80.16 101.09 84.38 103.11ZM76.02 115.66C78.31 114.17 78.11 121.7 77.2 122.84C74.67 122.94 75.53 115.98 76.02 115.66ZM71.78 130.07C72.09 130.13 75.71 134 76.01 134.81C73.91 135.64 66.84 129.02 71.78 130.07ZM99.69 164.74C98.25 165.03 99.81 167.24 99.08 167.13C98.82 167.09 97.82 165.72 96.98 165.58C87.52 164.03 77.22 161.86 68.97 156.98L52.06 154.56C59.01 154.73 50.85 152.88 52.05 150.98C52.64 150.06 59.46 147.95 59.87 147.69C60.67 147.18 61.28 144.6 64.99 143.25C70.11 141.41 77.23 141.82 82.6 139.6C77.28 151.48 85.46 144.7 87.37 146.2C87.79 146.53 91.1 153.81 92.79 155.16C93.25 155.52 99.16 150.82 103.68 153.56C109.33 157 102.43 155.67 103.86 157.57C104.21 158.04 116.3 162.78 112.84 163.56C111.86 163.78 109.75 161.89 108.96 164.13L115.55 167.73C112.96 168.71 100.48 164.58 99.69 164.74ZM116.74 116.84C115.41 118.83 103.99 117.73 117.64 112.06C122.77 109.93 115.5 116.19 113.15 115.66C113.56 118.04 118.49 114.24 116.74 116.84ZM117.35 141.4C116.51 138.1 118.31 132.96 121.54 131.22L117.35 141.4ZM136.51 103.09C129.42 105.65 126.56 108.54 121.54 113.86C123.54 108.07 129.59 102.19 136.51 103.09ZM123.35 147.08L130.52 146.79C129.07 148.26 124.84 148.67 123.35 147.08ZM128.43 133.01C125.87 132.97 127.85 127.54 130.52 128.23C130.73 129.06 128.69 133.02 128.43 133.01ZM136.31 112.13C135.44 112.5 135.25 113.87 134.67 114.12C121.39 119.81 137.83 109.59 138.9 110.27C143.32 113.04 136.57 112.01 136.31 112.13ZM139.51 84.22C138.94 81.5 148.32 79.11 149.09 81.54C149.26 82.08 140.23 87.62 139.51 84.22Z" fill="white"/>
</svg>
