<?xml version="1.0" encoding="UTF-8"?><svg id="a" xmlns="http://www.w3.org/2000/svg" viewBox="0 0 372.6 244.54"><path d="M156.89,71.56c.55.13,1.15.26,1.79.39-.58-.2-1.18-.33-1.79-.39Z"/><path d="M355.79,175.29c-5.18-4.81-12.19-2.87-12.61-3.37-1.41-1.66,2.05-17.44,2.04-21.24-.05-17.5-8.07-35.81-22.26-46.22-11.69-8.59-25.13-9.26-35.77-18.76-11.77-10.51-22.04-34.21-3.72-43.78,12.17-6.36,10.38,1.7,15.05,7.32,8.11,9.76,25.61,21.35,34.18,31.1,4.89,5.57,9.42,19.14,18.58,18.9,9.31-.24-4.49-21.62-5.03-24.07-4.59-20.83,4.34-34.73-13.93-51.93-12.94-12.18-32.86-11.5-48.92-6.53-41.58,12.85-52.13,61.9-15.21,88.58,9.2,6.65,33.85,17.61,33.58,30.48-.09,3.91-1.63,5.94-5.76,4.57-3.51-1.16-18.12-14.04-23.69-17.03-8.28-4.44-18.43-6.42-26.6-11.13-12.46-7.2-24.2-20.01-37.11-26.96-8.52-4.58-16.23-5.76-24.77-8.76-.79-.27-1.15-2.32-2.98-3.02-3.96-1.5-7.51-.01-10.25-.54-2.24-.44-4.43-3.29-7.24-4.13-6.59-1.97-19.99-.34-6.48,2.79.61.06,1.21.19,1.79.39-.64-.13-1.24-.26-1.79-.39-5.61-.68-12.44,3.5-17.05,4.01-3.28.37-13.18-5.77-16.9-5.94-3.36-.15-4.67,1.5-6.56,1.52-3.87.05-5-.09-8.91.23-.29.03-.39-1.32-.64-1.26-1.18.28-20.48,10.58-21.38,11.39-1.24,1.11-1,3.35-1.81,4.06-2.48,2.21-7.43,3.08-9.09,7.98-.67,2-.48,7.82-1.04,8.84-.21.38-6.51,3.56-6.88,5.39-.59,3.47-2.68,6.62-3.77,9.41-.45,1.15,1.42.49,1.12,1.69-.53,2.07-3.11,2.42-3.28,2.74-2.73,5.12,8.39,15.73,6.34,17.1-1.77,1.18-14.41,4.48-17.02,5.16-.4.1-1.79,3.2-2.17,1.4-.26-1.22,2.62-3.66.32-3.88-7.25,10.92-25.33,8.96-36.85,8.38-.03,9.83,10.55,12.05,16.19,17.03,5.73,5.05,9.61,11.4,16.88,17.68,0,0,12.05,8.02,14.45,11.11,2.4,3.08,44.23,2.74,54.91,6.17,10.68,3.43,57.89,7.88,60.29,6.51,2.4-1.37,21.6-1.71,29.15.45,7.54,2.16,90.27,0,90.27,0,.78-.32,3.93.36,6.12-.47,1.64-.62,3.16-2.86,5.09-3.28l39.11-9.72c1.55-2.11,11.98-3.58,11.98-3.58,0,0,5.21-11.58.03-16.39ZM340.89,84.85c2.78,3.05,6.6.84,7.67,1.63,1.07.8-.98,1.12-.65,3.05.33,1.93,6.22,3.44,3.43,3.81-2.48.33-8.4-3.78-11.44-7.8-.35-.46.6-1.11.99-.69ZM328.79,51.01c-.17,2.51,4.85,5.71,4.21,8.06-.12.44-4.62,1.09-4.79.91-.38-.38-.05-8.1.58-8.97ZM123.33,76.75c-.72.79-5.56,5.73-5.98,3.28-.26-1.54,4.54-3.61,5.98-3.28ZM115.65,78.98c-.29.59.66,1.81.5,1.95-.55.48-3.22-.34-3.47-1.48-.11-.49,6.77-8.2,2.97-.47ZM118.27,86.95c4.1-3.51,11.29-6.88,16.44-8.42l-1.79-1.18c.83.16,2.44-.79,2.97-.6,3.66,1.31-11.13,8.82-11.35,9.88-.36,1.74,3.6.97,2.38,2.98-2.13,3.53-3.05-.92-3.28-.89-2.3.35.45,3.49.29,3.58-.45.29-9.09-.6-10.17,2.12-.72,1.81,15.53-4.02,11.65,3.87-3.01-4.34-14.08-.08-14.65-.6-.92-.82,6.1-9.54,7.51-10.74ZM108.96,77.95c-.35,2.38-2.49,3.78-4.79,4.18l4.79-4.18ZM111.2,103.78c1.53-.45,2.83.64,3.75.5.31-.04-1.43-3.58,4.19,0-7.72,6.57-5.06,1.48-5.39,1.2-1.43-1.23-14,9.2-15.57,11.36.18-7.13,6.91-11.29,13.02-13.07ZM108.35,110.87c1.01.77.04,11.31-4.78,8.97l2.39-2.38c-9.14,2.79,1.2-7.5,2.39-6.59ZM99.62,122.27c2.92,1.14-2.85,4.07-1.44,5.35.33.3,2.21-.67,2.62-.44,1.5.84,5.69,3.9,7.86,3.43.33-.08,2.48-5.58,5.09-1.2-2.29.4-3.21,2.13-5.67,2.42-.77.09-10-1.29-10.48-1.51-3.53-1.63-.95-9.2,2.02-8.05ZM99.98,136.01c.44-.46,9.03,7.21-3.6,4.18.33-2.73,4.47-.45,4.78-2.09.02-.11-1.81-1.44-1.18-2.09ZM98.17,134.22c.45.7-2.51,4.47-3.58,4.78-1.51-3.38,1.57-7.93,3.58-4.78ZM87.99,124.63l6.59-5.98c.07,3.04-3.73,6.46-6.59,5.98ZM89.19,92.31l-5.97-.3c2-1.49,5.33-3.67,5.97.3ZM84.38,103.11c.48.23-2.19,9.98-4.17,9.55-1.39-2.42-.05-11.57,4.17-9.55ZM76.02,115.66c2.29-1.49,2.09,6.04,1.18,7.18-2.53.1-1.67-6.86-1.18-7.18ZM71.78,130.07c.31.06,3.93,3.93,4.23,4.74-2.1.83-9.17-5.79-4.23-4.74ZM99.69,164.74c-1.44.29.12,2.5-.61,2.39-.26-.04-1.26-1.41-2.1-1.55-9.46-1.55-19.76-3.72-28.01-8.6l-16.91-2.42c6.95.17-1.21-1.68-.01-3.58.59-.92,7.41-3.03,7.82-3.29.8-.51,1.41-3.09,5.12-4.44,5.12-1.84,12.24-1.43,17.61-3.65-5.32,11.88,2.86,5.1,4.77,6.6.42.33,3.73,7.61,5.42,8.96.46.36,6.37-4.34,10.89-1.6,5.65,3.44-1.25,2.11.18,4.01.35.47,12.44,5.21,8.98,5.99-.98.22-3.09-1.67-3.88.57l6.59,3.6c-2.59.98-15.07-3.15-15.86-2.99ZM116.74,116.84c-1.33,1.99-12.75.89.9-4.78,5.13-2.13-2.14,4.13-4.49,3.6.41,2.38,5.34-1.42,3.59,1.18ZM117.35,141.4c-.84-3.3.96-8.44,4.19-10.18l-4.19,10.18ZM136.51,103.09c-7.09,2.56-9.95,5.45-14.97,10.77,2-5.79,8.05-11.67,14.97-10.77ZM123.35,147.08l7.17-.29c-1.45,1.47-5.68,1.88-7.17.29ZM128.43,133.01c-2.56-.04-.58-5.47,2.09-4.78.21.83-1.83,4.79-2.09,4.78ZM136.31,112.13c-.87.37-1.06,1.74-1.64,1.99-13.28,5.69,3.16-4.53,4.23-3.85,4.42,2.77-2.33,1.74-2.59,1.86ZM139.51,84.22c-.57-2.72,8.81-5.11,9.58-2.68.17.54-8.86,6.08-9.58,2.68Z"/></svg>